<?xml version="1.0" standalone="no"?>
<!DOCTYPE svg PUBLIC "-//W3C//DTD SVG 20010904//EN"
 "http://www.w3.org/TR/2001/REC-SVG-20010904/DTD/svg10.dtd">
<svg version="1.0" xmlns="http://www.w3.org/2000/svg"
 width="1116.000000pt" height="1280.000000pt" viewBox="0 0 1116.000000 1280.000000"
 preserveAspectRatio="xMidYMid meet">
<metadata>
Created by potrace 1.15, written by Peter Selinger 2001-2017
</metadata>
<g transform="translate(0.000000,1280.000000) scale(0.100000,-0.100000)"
fill="#3f51b5" stroke="none">
<path d="M5710 12789 c-90 -15 -175 -47 -247 -95 -78 -51 -140 -76 -261 -104
-202 -48 -251 -63 -328 -100 -52 -25 -114 -68 -170 -116 -91 -77 -167 -124
-204 -124 -30 0 -25 -13 20 -49 50 -40 43 -53 -38 -76 -123 -35 -228 -109
-404 -283 -65 -64 -119 -114 -121 -112 -3 3 29 63 69 135 83 144 109 206 100
231 -5 14 -9 14 -39 -3 -70 -41 -137 -180 -144 -303 -5 -72 -4 -77 26 -114 50
-63 61 -118 71 -356 5 -118 14 -238 20 -266 15 -70 58 -132 135 -195 142 -115
155 -163 196 -694 33 -442 64 -648 121 -810 27 -76 32 -105 32 -185 1 -52 5
-101 10 -108 6 -10 34 -13 110 -12 151 3 145 5 163 -37 13 -32 14 -65 8 -205
-4 -114 -3 -168 4 -168 5 0 14 17 18 38 l7 37 7 -50 c4 -27 8 -100 8 -161 2
-259 48 -349 335 -657 188 -202 275 -315 324 -419 20 -43 42 -78 48 -78 7 0
27 -37 45 -82 79 -206 80 -208 64 -208 -63 0 72 -171 169 -216 74 -33 141 -38
316 -20 161 16 344 21 400 10 25 -5 36 -15 47 -43 26 -60 73 -311 73 -388 0
-63 -3 -75 -26 -103 -51 -60 -176 -107 -539 -205 -93 -25 -206 -57 -250 -72
-175 -56 -402 -158 -543 -244 -35 -21 -67 -39 -71 -39 -15 0 -91 -87 -91 -105
-1 -38 -56 -112 -102 -134 -123 -60 -197 -304 -233 -776 -29 -384 -52 -482
-165 -720 -55 -116 -60 -122 -140 -190 -227 -191 -327 -286 -385 -365 -57 -80
-59 -85 -57 -139 3 -80 -30 -145 -76 -149 -42 -4 -87 24 -151 94 -62 68 -123
169 -151 249 -17 49 -21 89 -24 215 -3 171 -15 220 -77 314 -54 81 -119 95
-119 26 0 -26 -26 -60 -46 -60 -6 0 -27 35 -48 79 l-39 78 17 48 c22 66 21 81
-14 123 -38 48 -113 210 -180 389 l-53 142 107 111 c162 168 243 303 322 532
90 261 239 502 433 697 124 124 202 174 365 231 214 76 222 86 124 175 -95 84
-171 118 -277 123 -192 9 -347 -65 -699 -336 -89 -68 -166 -130 -170 -137 -4
-7 -33 -27 -64 -44 l-57 -32 -12 22 c-9 17 -9 24 0 27 18 6 13 45 -20 139 -94
267 -354 795 -660 1338 -141 251 -189 350 -196 404 -6 44 -7 43 114 148 69 60
85 96 55 126 -25 25 -101 34 -142 17 -39 -16 -70 -55 -70 -89 0 -43 -27 -73
-63 -69 -31 3 -32 5 -29 43 4 49 -44 132 -132 231 -91 101 -156 137 -156 85 0
-14 -10 -21 -36 -26 -31 -5 -39 -3 -52 17 -38 55 -136 147 -194 181 -94 56
-148 46 -134 -26 4 -19 -1 -62 -11 -105 l-17 -74 53 -161 c30 -89 56 -168 58
-174 3 -7 -9 -25 -26 -40 -45 -40 -40 -53 18 -53 l48 0 173 -392 c163 -369
174 -399 186 -488 16 -119 7 -165 -34 -173 -47 -9 -137 -84 -166 -138 -51 -92
-69 -245 -40 -324 l14 -40 -62 -57 c-44 -41 -64 -54 -70 -45 -6 8 -18 1 -43
-27 -79 -89 -132 -373 -106 -571 18 -132 69 -269 115 -310 13 -11 37 -56 54
-100 16 -44 39 -104 51 -133 12 -29 17 -50 11 -47 -21 13 -21 -27 -1 -95 28
-90 134 -302 209 -416 32 -49 91 -125 131 -169 137 -153 236 -404 229 -585 -2
-67 -7 -91 -24 -115 -12 -16 -27 -48 -33 -70 -29 -105 6 -447 57 -550 23 -48
63 -85 117 -110 100 -44 131 -104 203 -395 84 -334 196 -672 387 -1170 289
-751 635 -1480 752 -1582 26 -24 107 -38 207 -37 70 0 78 2 56 12 -39 18 92
20 460 6 219 -9 1178 -13 3138 -16 l2822 -4 0 24 c0 84 173 589 590 1722 l162
440 -11 885 c-6 487 -16 926 -20 976 -23 225 -68 404 -160 638 -159 401 -356
675 -721 999 -306 273 -427 408 -362 407 9 0 41 -16 71 -35 69 -44 122 -52
198 -30 172 49 308 215 347 425 9 47 23 202 31 345 17 286 35 453 66 608 30
150 36 320 14 441 -20 110 -17 173 15 293 27 104 27 280 0 439 -54 317 -130
448 -396 685 -65 58 -129 120 -141 139 -30 43 -29 85 2 153 43 93 58 201 52
372 -8 236 -61 393 -172 513 -104 113 -211 148 -495 162 -102 5 -208 9 -237
10 l-52 0 -63 133 c-130 276 -259 526 -326 632 -338 539 -793 987 -1197 1182
-134 64 -230 88 -415 102 -152 12 -239 27 -385 67 -135 36 -282 38 -405 5
-117 -31 -209 -27 -305 16 -113 51 -244 65 -385 42z m2927 -2722 c-8 -24 -37
-17 -76 19 -23 20 -41 40 -41 45 0 5 27 -4 61 -21 33 -17 59 -36 56 -43z
m-5443 -5527 c3 -14 -12 12 -33 56 -21 45 -42 92 -45 105 -3 13 12 -12 33 -56
21 -44 41 -91 45 -105z m-828 -806 c30 -8 54 -16 54 -17 0 -1 7 -24 15 -51
l15 -49 -61 7 c-34 3 -76 15 -94 26 -34 21 -62 71 -50 89 9 16 58 13 121 -5z"/>
<path d="M4 10086 c-12 -31 7 -85 51 -145 69 -93 186 -180 370 -272 88 -44
175 -94 192 -112 81 -77 87 -206 28 -542 -64 -359 -60 -686 8 -879 17 -47 27
-61 42 -61 28 0 31 57 8 164 -14 67 -18 127 -17 271 1 202 17 330 80 655 42
215 52 322 35 363 -7 16 -36 49 -64 74 -74 63 -109 133 -115 225 -2 40 -9 70
-13 67 -5 -3 -9 -15 -9 -28 0 -38 -38 -168 -53 -183 -53 -53 -378 176 -465
328 -17 30 -40 64 -51 74 -19 16 -21 16 -27 1z"/>
<path d="M987 9354 c-9 -9 -9 -96 -1 -118 11 -30 34 3 34 48 0 42 -19 83 -33
70z"/>
<path d="M1295 7965 c-200 -43 -278 -45 -325 -10 -23 17 -47 25 -74 25 -75 -1
-164 -58 -149 -97 21 -54 202 -79 352 -49 138 28 410 128 419 154 6 19 -48 14
-223 -23z"/>
</g>
</svg>
