<?xml version="1.0" standalone="no"?>
<!DOCTYPE svg PUBLIC "-//W3C//DTD SVG 20010904//EN"
 "http://www.w3.org/TR/2001/REC-SVG-20010904/DTD/svg10.dtd">
<svg version="1.0" xmlns="http://www.w3.org/2000/svg"
 width="1280.000000pt" height="1017.000000pt" viewBox="0 0 1280.000000 1017.000000"
 preserveAspectRatio="xMidYMid meet">
<metadata>
Created by potrace 1.15, written by Peter Selinger 2001-2017
</metadata>
<g transform="translate(0.000000,1017.000000) scale(0.100000,-0.100000)"
fill="#ea1f10" stroke="none">
<path d="M7037 10140 c-253 -68 -466 -161 -618 -269 -82 -59 -200 -173 -301
-293 l-47 -55 -73 -7 c-40 -4 -170 -32 -288 -62 -251 -63 -356 -78 -461 -64
-88 11 -112 18 -204 57 -38 16 -91 35 -117 41 -47 12 -309 52 -339 52 -9 0
-23 -15 -30 -32 -18 -45 -95 -126 -144 -150 -70 -37 -135 -48 -360 -63 -554
-37 -972 -116 -1407 -264 -879 -300 -1527 -778 -1981 -1462 -372 -561 -572
-1187 -648 -2029 -16 -175 -16 -649 0 -815 71 -762 285 -1392 688 -2027 579
-914 1554 -1662 2808 -2153 909 -356 1973 -545 3060 -545 1204 1 2282 243
3310 745 780 381 1432 908 1907 1540 480 640 820 1465 949 2308 152 991 3
1948 -451 2892 -211 439 -414 739 -690 1015 -424 425 -907 691 -1555 855 -353
89 -631 125 -1035 132 -497 9 -895 -31 -1431 -143 l-167 -35 -258 97 c-143 53
-262 99 -266 103 -8 7 248 271 360 372 l62 57 0 58 c-1 109 -51 175 -132 173
-18 0 -82 -14 -141 -29z m2123 -975 c514 -39 789 -93 1150 -227 133 -49 416
-182 455 -213 11 -9 -27 9 -85 39 -346 180 -782 311 -1180 355 -82 9 -582 51
-609 51 -5 0 -12 -8 -14 -17 -3 -11 -5 -7 -6 10 -1 28 0 28 42 23 23 -3 134
-13 247 -21z m-4326 -106 c31 -11 58 -24 61 -29 3 -5 -14 0 -39 10 -97 44
-214 36 -426 -26 -100 -30 -142 -36 -325 -49 -752 -54 -1308 -196 -1865 -475
-555 -278 -979 -643 -1289 -1110 -273 -411 -440 -845 -542 -1405 -28 -158 -39
-202 -39 -163 0 45 57 342 91 480 294 1172 1035 1976 2218 2409 420 154 884
246 1411 279 120 8 211 19 260 32 41 11 113 31 160 43 115 32 247 33 324 4z
m4193 -145 c-41 -94 -45 -99 -73 -98 -16 1 -105 7 -198 14 -494 36 -1014 -82
-1373 -312 -34 -22 -68 -38 -74 -36 -15 5 121 93 226 145 170 86 393 154 630
195 110 18 170 22 385 22 140 1 292 -3 338 -7 l82 -8 19 43 c50 116 74 162 77
152 3 -5 -15 -55 -39 -110z m-4132 -170 c206 -75 374 -139 371 -141 -4 -4
-756 264 -765 273 -14 14 57 -10 394 -132z m5935 -60 c0 -2 -9 0 -20 6 -11 6
-20 13 -20 16 0 2 9 0 20 -6 11 -6 20 -13 20 -16z m-6525 -40 c132 -27 230
-50 219 -52 -12 -2 -111 16 -220 38 -175 37 -220 42 -375 47 -371 12 -584 -33
-959 -201 -130 -59 -171 -72 -144 -47 17 16 348 158 429 184 186 61 388 87
635 82 163 -3 192 -6 415 -51z m6575 10 c0 -2 -9 0 -20 6 -11 6 -20 13 -20 16
0 2 9 0 20 -6 11 -6 20 -13 20 -16z m-1971 -80 c138 -20 278 -55 399 -100 97
-37 232 -100 232 -109 0 -3 -26 8 -57 23 -286 143 -653 211 -999 184 -174 -14
-320 -38 -486 -81 -62 -16 -117 -26 -121 -22 -14 14 270 81 445 105 144 20
454 20 587 0z m701 -250 c0 -2 -13 2 -30 11 -16 9 -30 18 -30 21 0 2 14 -2 30
-11 17 -9 30 -18 30 -21z m-4830 -199 c69 -8 163 -24 210 -35 104 -25 243 -70
236 -77 -2 -3 -40 7 -83 21 -199 66 -394 91 -658 83 -192 -5 -340 -25 -501
-66 -41 -10 -76 -15 -79 -11 -7 11 40 24 200 55 239 46 458 56 675 30z m2704
-215 c204 -35 471 -110 801 -225 202 -71 506 -165 531 -165 11 0 28 6 39 13
53 36 135 77 135 68 0 -5 -35 -31 -77 -56 l-78 -47 -80 22 c-44 13 -233 74
-420 136 -507 169 -660 211 -909 248 -97 15 -134 26 -84 26 14 0 78 -9 142
-20z m-2011 -47 c37 -18 67 -35 67 -38 0 -3 -22 6 -48 19 -96 49 -176 51 -332
11 -337 -87 -634 -269 -936 -572 -290 -291 -521 -621 -775 -1107 -45 -88 -84
-155 -86 -149 -5 13 48 120 156 317 229 416 453 719 738 996 290 283 555 441
888 531 147 39 231 37 328 -8z m117 -69 c0 -2 -9 0 -20 6 -11 6 -20 13 -20 16
0 2 9 0 20 -6 11 -6 20 -13 20 -16z m4675 -13 c-3 -6 -15 -16 -26 -21 -14 -8
-19 -7 -19 3 0 8 10 19 23 24 25 12 32 10 22 -6z m-4520 -61 c22 -7 34 -15 27
-18 -13 -4 -142 53 -142 63 0 3 17 -3 38 -13 20 -11 55 -25 77 -32z m928 -88
c48 -22 87 -43 87 -46 0 -2 -34 11 -76 30 -166 77 -230 69 -332 -41 -127 -135
-285 -411 -351 -610 -44 -132 -71 -283 -80 -432 -8 -150 -21 -180 -81 -196
-37 -9 -117 6 -147 29 -15 11 -10 11 26 -1 82 -28 144 -15 172 37 6 11 15 82
20 157 15 241 62 420 168 636 101 206 264 428 343 469 56 28 147 17 251 -32z
m137 -78 c0 -2 -9 0 -20 6 -11 6 -20 13 -20 16 0 2 9 0 20 -6 11 -6 20 -13 20
-16z m590 -429 c39 -19 70 -37 70 -40 0 -5 -139 60 -148 69 -13 14 13 4 78
-29z m567 -67 c-3 -8 -6 -5 -6 6 -1 11 2 17 5 13 3 -3 4 -12 1 -19z m34 -191
c6 -65 9 -124 6 -131 -5 -12 -171 -76 -197 -76 -29 0 8 21 78 44 42 15 83 30
91 35 11 7 13 32 8 127 -4 66 -9 133 -12 149 l-5 30 10 -30 c5 -16 15 -83 21
-148z m-344 -679 c-3 -8 -6 -5 -6 6 -1 11 2 17 5 13 3 -3 4 -12 1 -19z m20
-80 c-3 -8 -6 -5 -6 6 -1 11 2 17 5 13 3 -3 4 -12 1 -19z m10 -40 c-3 -8 -6
-5 -6 6 -1 11 2 17 5 13 3 -3 4 -12 1 -19z m10 -50 c-3 -7 -5 -2 -5 12 0 14 2
19 5 13 2 -7 2 -19 0 -25z m20 -80 c-3 -8 -6 -5 -6 6 -1 11 2 17 5 13 3 -3 4
-12 1 -19z m10 -50 c-3 -7 -5 -2 -5 12 0 14 2 19 5 13 2 -7 2 -19 0 -25z m10
-50 c-3 -7 -5 -2 -5 12 0 14 2 19 5 13 2 -7 2 -19 0 -25z m21 -98 c0 -22 -1
-22 -8 5 -4 17 -8 41 -8 55 0 22 1 22 8 -5 4 -16 8 -41 8 -55z m-7397 -151
c-29 -306 -22 -775 14 -1068 16 -127 18 -171 4 -101 -38 194 -59 747 -40 1055
12 184 19 241 28 231 2 -2 0 -55 -6 -117z m7448 -162 c12 -87 20 -179 20 -205
-1 -26 -8 14 -15 88 -8 74 -23 190 -34 258 -11 67 -19 128 -19 135 3 25 29
-123 48 -276z m-7412 -1094 c-3 -10 -5 -4 -5 12 0 17 2 24 5 18 2 -7 2 -21 0
-30z m10 -55 c-3 -7 -5 -2 -5 12 0 14 2 19 5 13 2 -7 2 -19 0 -25z m10 -50
c-3 -7 -5 -2 -5 12 0 14 2 19 5 13 2 -7 2 -19 0 -25z m10 -40 c-3 -8 -6 -5 -6
6 -1 11 2 17 5 13 3 -3 4 -12 1 -19z m10 -50 c-3 -8 -6 -5 -6 6 -1 11 2 17 5
13 3 -3 4 -12 1 -19z m10 -40 c-3 -8 -6 -5 -6 6 -1 11 2 17 5 13 3 -3 4 -12 1
-19z m10 -40 c-3 -8 -6 -5 -6 6 -1 11 2 17 5 13 3 -3 4 -12 1 -19z"/>
</g>
</svg>
