<?xml version="1.0" standalone="no"?>
<!DOCTYPE svg PUBLIC "-//W3C//DTD SVG 20010904//EN"
 "http://www.w3.org/TR/2001/REC-SVG-20010904/DTD/svg10.dtd">
<svg version="1.0" xmlns="http://www.w3.org/2000/svg"
 width="1198.000000pt" height="1280.000000pt" viewBox="0 0 1198.000000 1280.000000"
 preserveAspectRatio="xMidYMid meet">
<metadata>
Created by potrace 1.15, written by Peter Selinger 2001-2017
</metadata>
<g transform="translate(0.000000,1280.000000) scale(0.100000,-0.100000)"
fill="#9e9e9e" stroke="none">
<path d="M11150 12794 c-648 -78 -1620 -506 -2805 -1234 -1012 -623 -2186
-1500 -2985 -2230 l-95 -87 -112 28 c-221 55 -312 64 -723 64 -366 0 -419 -3
-765 -41 -433 -47 -983 -145 -1350 -239 -620 -160 -1264 -443 -1740 -766 -360
-244 -554 -458 -572 -633 -15 -144 80 -238 287 -286 550 -127 829 -206 1235
-348 347 -122 631 -245 1000 -434 138 -71 325 -165 416 -211 166 -82 166 -82
192 -134 95 -191 374 -546 656 -835 41 -43 73 -79 70 -81 -2 -2 -58 -34 -124
-72 -442 -252 -792 -557 -998 -870 -213 -323 -307 -711 -277 -1143 6 -86 25
-281 42 -432 23 -205 32 -321 32 -455 1 -286 -21 -364 -189 -680 -173 -326
-256 -549 -241 -648 14 -94 79 -147 177 -147 145 0 372 110 934 452 271 164
358 188 1079 288 421 59 649 121 890 242 354 178 622 495 780 921 61 163 121
395 151 580 3 21 9 37 13 35 4 -2 66 -42 137 -89 273 -181 536 -325 707 -387
l78 -28 68 -100 c37 -54 130 -184 208 -289 368 -496 575 -830 828 -1335 147
-295 230 -479 348 -775 113 -282 130 -311 212 -363 56 -35 160 -38 226 -5 214
106 444 477 657 1058 156 428 280 982 322 1445 50 547 44 1381 -14 1898 -53
473 -158 862 -289 1077 l-24 40 110 180 c1032 1684 1888 3727 2173 5185 76
386 99 594 99 895 1 310 -26 474 -103 640 -86 183 -198 282 -376 332 -49 14
-277 25 -345 17z"/>
</g>
</svg>
